<svg xmlns="http://www.w3.org/2000/svg" id="Layer_2" viewBox="0 0 850.39 311.81"><defs><style>.logo-1{fill:#1c1f21;}</style></defs><g><path class="logo-1" d="m159.84,311.81c-7.25,0-15.49-2.24-20.69-6.27-1.79-1.43-3.05-3.22-3.05-5.2,0-2.78,1.79-4.66,4.57-4.66.99,0,1.88.27,2.78.81,4.84,3.05,8.15,5.73,16.57,5.73s12-3.49,12-7.52c0-4.39-3.49-6.63-14.24-9.49-16.21-4.3-21.05-9.49-21.05-18.45,0-10.93,9.4-16.75,23.65-16.75,3.22,0,7.61.54,11.46,1.61,4.12,1.16,9.31,3.76,9.31,7.34,0,2.42-1.43,4.93-4.48,4.93-.72,0-1.43-.09-2.15-.45-4.12-1.88-8.42-3.76-14.06-3.76-7.97,0-12.81,2.15-12.81,6.81,0,4.39,3.58,5.91,14.33,9.05,12.27,3.58,20.96,7.08,20.96,18.54,0,10.39-7.88,17.73-23.11,17.73Z"></path><path class="logo-1" d="m256.39,255.92c0-3.05,2.42-5.55,5.46-5.55s5.46,2.51,5.46,5.55v30.72c0,15.41-9.58,25.17-25.53,25.17s-25.53-9.76-25.53-25.17v-30.72c0-3.05,2.42-5.55,5.46-5.55s5.46,2.51,5.46,5.55v31.88c0,8.33,5.02,14.15,14.6,14.15s14.6-5.82,14.6-14.15v-31.88Z"></path><path class="logo-1" d="m331.7,287.63h-17.11v18.36c0,3.05-2.42,5.46-5.46,5.46s-5.46-2.42-5.46-5.46v-49.44c0-3.05,2.42-5.46,5.46-5.46h22.57c14.87,0,21.23,8.24,21.23,18.36s-6.36,18.18-21.23,18.18Zm1.52-26.51h-18.63v16.39h18.63c6,0,8.69-4.03,8.69-8.06s-2.69-8.33-8.69-8.33Z"></path><path class="logo-1" d="m412.66,287.63h-17.11v18.36c0,3.05-2.42,5.46-5.46,5.46s-5.46-2.42-5.46-5.46v-49.44c0-3.05,2.42-5.46,5.46-5.46h22.57c14.87,0,21.23,8.24,21.23,18.36s-6.36,18.18-21.23,18.18Zm1.52-26.51h-18.63v16.39h18.63c6,0,8.69-4.03,8.69-8.06s-2.69-8.33-8.69-8.33Z"></path><path class="logo-1" d="m471.14,310.74c-3.05,0-5.55-2.51-5.55-5.55v-49.26c0-3.05,2.51-5.55,5.55-5.55s5.37,2.51,5.37,5.55v44.51h26.15c2.78,0,5.11,2.24,5.11,5.11s-2.33,5.11-5.11,5.19h-31.53Z"></path><path class="logo-1" d="m545.38,311.45c-3.05,0-5.55-2.51-5.55-5.55v-49.98c0-3.05,2.51-5.55,5.55-5.55s5.37,2.51,5.37,5.55v49.98c0,3.05-2.33,5.55-5.37,5.55Z"></path><path class="logo-1" d="m627.06,310.74h-33.59c-3.05,0-5.55-2.42-5.55-5.46v-48.72c0-3.05,2.51-5.46,5.55-5.46h32.24c2.87,0,5.19,2.15,5.19,5.02s-2.33,5.11-5.19,5.11h-26.87v14.24h14.78c2.78,0,5.11,2.24,5.11,5.11s-2.33,5.02-5.11,5.02h-14.78v15.05h28.21c2.87,0,5.2,2.24,5.2,5.11s-2.33,5.02-5.2,5.02Z"></path><path class="logo-1" d="m714.2,305.99c0,2.78-2.15,5.46-5.46,5.46-2.42,0-3.94-1.07-4.84-2.96l-10.48-21.59h-18v19.08c0,3.05-2.42,5.46-5.46,5.46s-5.46-2.42-5.46-5.46v-49.44c0-3.05,2.42-5.46,5.46-5.46h23.02c14.87,0,21.23,7.34,21.23,17.91,0,6.99-3.05,12.99-9.85,15.94l9.23,18.72c.36.72.63,1.52.63,2.33Zm-19.7-44.87h-19.08v16.39h19.08c6,0,8.69-4.39,8.69-8.42s-2.69-7.97-8.69-7.97Z"></path></g><g><path class="logo-1" d="m190.6.72c-6.54,0-12.59,4.14-15.43,10.57l-71.76,170.76L31.63,11.25C28.81,4.86,22.76.72,16.22.72,6.52.72,0,7.1,0,16.6c0,1.51.29,3.96,1.11,5.92l77.49,179.33c4.6,9.8,11.99,14.98,21.35,14.98h6.9c9.37,0,16.75-5.18,21.38-15.04L205.71,22.5c.82-1.94,1.11-4.39,1.11-5.9,0-9.5-6.52-15.87-16.22-15.87Z"></path><path class="logo-1" d="m342.97,13.57c-3.81-8.49-11.34-13.57-20.16-13.57h-3.14c-8.81,0-16.35,5.07-20.16,13.57l-80.16,180.89c-1.17,2.6-1.76,4.91-1.76,6.87,0,9.2,6.68,15.63,16.25,15.63,6.86,0,12.62-3.6,15.45-9.68l71.94-165.05,71.97,165.1c2.81,6.03,8.57,9.63,15.43,9.63,9.57,0,16.25-6.43,16.25-15.63,0-1.96-.59-4.27-1.75-6.86L342.97,13.57Z"></path><path class="logo-1" d="m834.68,187.43h-110.22v-61.92h98.83c8.81,0,15.71-6.42,15.71-14.62s-6.9-14.92-15.71-14.92h-98.83v-61.62h110.22c8.81,0,15.71-6.42,15.71-14.62s-6.9-14.92-15.71-14.92h-126.88c-9.01,0-16.35,7.09-16.35,15.81v180.81c0,8.55,7.33,15.51,16.35,15.51h126.88c8.81,0,15.71-6.42,15.71-14.62s-6.9-14.92-15.71-14.92Z"></path><path class="logo-1" d="m561.53,4.84h-71.46c-8.94,0-16.21,7.05-16.21,15.71v181.01c0,8.5,7.27,15.42,16.21,15.42s16.52-6.92,16.52-15.42v-61.19h54.93c29.52,0,52.08-7.29,67.04-21.66,12.09-11.61,18.75-27.99,18.75-46.11s-6.66-34.49-18.75-46.1c-14.96-14.37-37.51-21.66-67.04-21.66Zm53.05,67.76c0,17.39-9.69,38.12-55.87,38.12h-52.11V34.48h52.11c46.18,0,55.87,20.73,55.87,38.11Z"></path></g></svg>